<!DOCTYPE svg PUBLIC "-//W3C//DTD SVG 1.1//EN"
"http://www.w3.org/Graphics/SVG/1.1/DTD/svg11.dtd"><svg xmlns="http://www.w3.org/2000/svg" width="8000" height="1000"><rect x="0" y="0" width="200" height="90" style="fill:blue; stroke:pink; stroke - width:1; fill - opacity:0.1; stroke - opacity:0.9" /><rect x="0" y="92" width="200" height="90" style="fill:blue; stroke:pink; stroke - width:1; fill - opacity:0.1; stroke - opacity:0.9" /><rect x="0" y="184" width="200" height="50" style="fill:blue; stroke:pink; stroke - width:1; fill - opacity:0.1; stroke - opacity:0.9" /><rect x="0" y="236" width="200" height="198" style="fill:blue; stroke:pink; stroke - width:1; fill - opacity:0.1; stroke - opacity:0.9" /><rect x="0" y="436" width="200" height="50" style="fill:blue; stroke:pink; stroke - width:1; fill - opacity:0.1; stroke - opacity:0.9" /><rect x="0" y="488" width="50" height="512" style="fill:blue; stroke:pink; stroke - width:1; fill - opacity:0.1; stroke - opacity:0.9" /><rect x="52" y="488" width="50" height="512" style="fill:blue; stroke:pink; stroke - width:1; fill - opacity:0.1; stroke - opacity:0.9" /><rect x="104" y="488" width="96" height="250" style="fill:blue; stroke:pink; stroke - width:1; fill - opacity:0.1; stroke - opacity:0.9" /><rect x="104" y="740" width="96" height="260" style="fill:blue; stroke:pink; stroke - width:1; fill - opacity:0.1; stroke - opacity:0.9" /><rect x="202" y="0" width="200" height="500" style="fill:red; stroke:pink; stroke - width:1; fill - opacity:0.1; stroke - opacity:0.9" /><rect x="404" y="0" width="200" height="500" style="fill:red; stroke:pink; stroke - width:1; fill - opacity:0.1; stroke - opacity:0.9" /><rect x="606" y="0" width="50" height="250" style="fill:red; stroke:pink; stroke - width:1; fill - opacity:0.1; stroke - opacity:0.9" /><rect x="606" y="252" width="50" height="248" style="fill:blue; stroke:pink; stroke - width:1; fill - opacity:0.1; stroke - opacity:0.9" /><rect x="658" y="0" width="44" height="500" style="fill:blue; stroke:pink; stroke - width:1; fill - opacity:0.1; stroke - opacity:0.9" /><rect x="202" y="502" width="200" height="50" style="fill:blue; stroke:pink; stroke - width:1; fill - opacity:0.1; stroke - opacity:0.9" /><rect x="202" y="554" width="200" height="50" style="fill:blue; stroke:pink; stroke - width:1; fill - opacity:0.1; stroke - opacity:0.9" /><rect x="202" y="606" width="200" height="198" style="fill:blue; stroke:pink; stroke - width:1; fill - opacity:0.1; stroke - opacity:0.9" /><rect x="202" y="806" width="200" height="194" style="fill:blue; stroke:pink; stroke - width:1; fill - opacity:0.1; stroke - opacity:0.9" /><rect x="404" y="502" width="250" height="50" style="fill:red; stroke:pink; stroke - width:1; fill - opacity:0.1; stroke - opacity:0.9" /><rect x="656" y="502" width="46" height="50" style="fill:blue; stroke:pink; stroke - width:1; fill - opacity:0.1; stroke - opacity:0.9" /><rect x="404" y="554" width="250" height="50" style="fill:red; stroke:pink; stroke - width:1; fill - opacity:0.1; stroke - opacity:0.9" /><rect x="404" y="606" width="250" height="50" style="fill:red; stroke:pink; stroke - width:1; fill - opacity:0.1; stroke - opacity:0.9" /><rect x="404" y="658" width="250" height="50" style="fill:red; stroke:pink; stroke - width:1; fill - opacity:0.1; stroke - opacity:0.9" /><rect x="404" y="710" width="50" height="94" style="fill:blue; stroke:pink; stroke - width:1; fill - opacity:0.1; stroke - opacity:0.9" /><rect x="456" y="710" width="198" height="94" style="fill:blue; stroke:pink; stroke - width:1; fill - opacity:0.1; stroke - opacity:0.9" /><rect x="404" y="806" width="50" height="194" style="fill:blue; stroke:pink; stroke - width:1; fill - opacity:0.1; stroke - opacity:0.9" /><rect x="456" y="806" width="198" height="194" style="fill:blue; stroke:pink; stroke - width:1; fill - opacity:0.1; stroke - opacity:0.9" /><rect x="656" y="554" width="46" height="446" style="fill:blue; stroke:pink; stroke - width:1; fill - opacity:0.1; stroke - opacity:0.9" /><rect x="704" y="0" width="90" height="850" style="fill:red; stroke:pink; stroke - width:1; fill - opacity:0.1; stroke - opacity:0.9" /><rect x="796" y="0" width="90" height="850" style="fill:red; stroke:pink; stroke - width:1; fill - opacity:0.1; stroke - opacity:0.9" /><rect x="888" y="0" width="16" height="850" style="fill:blue; stroke:pink; stroke - width:1; fill - opacity:0.1; stroke - opacity:0.9" /><rect x="704" y="852" width="200" height="148" style="fill:blue; stroke:pink; stroke - width:1; fill - opacity:0.1; stroke - opacity:0.9" /><rect x="906" y="0" width="250" height="50" style="fill:red; stroke:pink; stroke - width:1; fill - opacity:0.1; stroke - opacity:0.9" /><rect x="906" y="52" width="250" height="38" style="fill:blue; stroke:pink; stroke - width:1; fill - opacity:0.1; stroke - opacity:0.9" /><rect x="1158" y="0" width="46" height="90" style="fill:blue; stroke:pink; stroke - width:1; fill - opacity:0.1; stroke - opacity:0.9" /><rect x="906" y="92" width="90" height="50" style="fill:blue; stroke:pink; stroke - width:1; fill - opacity:0.1; stroke - opacity:0.9" /><rect x="906" y="144" width="90" height="198" style="fill:blue; stroke:pink; stroke - width:1; fill - opacity:0.1; stroke - opacity:0.9" /><rect x="906" y="344" width="50" height="50" style="fill:blue; stroke:pink; stroke - width:1; fill - opacity:0.1; stroke - opacity:0.9" /><rect x="906" y="396" width="50" height="50" style="fill:blue; stroke:pink; stroke - width:1; fill - opacity:0.1; stroke - opacity:0.9" /><rect x="906" y="448" width="50" height="552" style="fill:blue; stroke:pink; stroke - width:1; fill - opacity:0.1; stroke - opacity:0.9" /><rect x="958" y="344" width="38" height="656" style="fill:blue; stroke:pink; stroke - width:1; fill - opacity:0.1; stroke - opacity:0.9" /><rect x="998" y="92" width="50" height="50" style="fill:blue; stroke:pink; stroke - width:1; fill - opacity:0.1; stroke - opacity:0.9" /><rect x="998" y="144" width="50" height="250" style="fill:red; stroke:pink; stroke - width:1; fill - opacity:0.1; stroke - opacity:0.9" /><rect x="998" y="396" width="50" height="604" style="fill:blue; stroke:pink; stroke - width:1; fill - opacity:0.1; stroke - opacity:0.9" /><rect x="1050" y="92" width="50" height="50" style="fill:blue; stroke:pink; stroke - width:1; fill - opacity:0.1; stroke - opacity:0.9" /><rect x="1050" y="144" width="50" height="50" style="fill:blue; stroke:pink; stroke - width:1; fill - opacity:0.1; stroke - opacity:0.9" /><rect x="1050" y="196" width="50" height="804" style="fill:blue; stroke:pink; stroke - width:1; fill - opacity:0.1; stroke - opacity:0.9" /><rect x="1102" y="92" width="102" height="50" style="fill:blue; stroke:pink; stroke - width:1; fill - opacity:0.1; stroke - opacity:0.9" /><rect x="1102" y="144" width="102" height="856" style="fill:blue; stroke:pink; stroke - width:1; fill - opacity:0.1; stroke - opacity:0.9" /><rect x="1206" y="0" width="500" height="200" style="fill:red; stroke:pink; stroke - width:1; fill - opacity:0.1; stroke - opacity:0.9" /><rect x="1206" y="202" width="50" height="50" style="fill:blue; stroke:pink; stroke - width:1; fill - opacity:0.1; stroke - opacity:0.9" /><rect x="1258" y="202" width="448" height="50" style="fill:blue; stroke:pink; stroke - width:1; fill - opacity:0.1; stroke - opacity:0.9" /><rect x="1206" y="254" width="50" height="246" style="fill:blue; stroke:pink; stroke - width:1; fill - opacity:0.1; stroke - opacity:0.9" /><rect x="1258" y="254" width="448" height="246" style="fill:blue; stroke:pink; stroke - width:1; fill - opacity:0.1; stroke - opacity:0.9" /><rect x="1708" y="0" width="90" height="50" style="fill:blue; stroke:pink; stroke - width:1; fill - opacity:0.1; stroke - opacity:0.9" /><rect x="1708" y="52" width="90" height="198" style="fill:blue; stroke:pink; stroke - width:1; fill - opacity:0.1; stroke - opacity:0.9" /><rect x="1708" y="252" width="90" height="248" style="fill:blue; stroke:pink; stroke - width:1; fill - opacity:0.1; stroke - opacity:0.9" /><rect x="1800" y="0" width="50" height="250" style="fill:red; stroke:pink; stroke - width:1; fill - opacity:0.1; stroke - opacity:0.9" /><rect x="1800" y="252" width="50" height="248" style="fill:blue; stroke:pink; stroke - width:1; fill - opacity:0.1; stroke - opacity:0.9" /><rect x="1852" y="0" width="250" height="500" style="fill:blue; stroke:pink; stroke - width:1; fill - opacity:0.1; stroke - opacity:0.9" /><rect x="2104" y="0" width="454" height="250" style="fill:blue; stroke:pink; stroke - width:1; fill - opacity:0.1; stroke - opacity:0.9" /><rect x="2104" y="252" width="454" height="248" style="fill:blue; stroke:pink; stroke - width:1; fill - opacity:0.1; stroke - opacity:0.9" /><rect x="2560" y="0" width="5440" height="90" style="fill:blue; stroke:pink; stroke - width:1; fill - opacity:0.1; stroke - opacity:0.9" /><rect x="2560" y="92" width="50" height="408" style="fill:blue; stroke:pink; stroke - width:1; fill - opacity:0.1; stroke - opacity:0.9" /><rect x="2612" y="92" width="250" height="408" style="fill:blue; stroke:pink; stroke - width:1; fill - opacity:0.1; stroke - opacity:0.9" /><rect x="2864" y="92" width="5136" height="408" style="fill:blue; stroke:pink; stroke - width:1; fill - opacity:0.1; stroke - opacity:0.9" /><rect x="1206" y="502" width="500" height="200" style="fill:blue; stroke:pink; stroke - width:1; fill - opacity:0.1; stroke - opacity:0.9" /><rect x="1206" y="704" width="250" height="296" style="fill:blue; stroke:pink; stroke - width:1; fill - opacity:0.1; stroke - opacity:0.9" /><rect x="1458" y="704" width="248" height="296" style="fill:blue; stroke:pink; stroke - width:1; fill - opacity:0.1; stroke - opacity:0.9" /><rect x="1708" y="502" width="850" height="90" style="fill:red; stroke:pink; stroke - width:1; fill - opacity:0.1; stroke - opacity:0.9" /><rect x="1708" y="594" width="850" height="250" style="fill:blue; stroke:pink; stroke - width:1; fill - opacity:0.1; stroke - opacity:0.9" /><rect x="1708" y="846" width="850" height="154" style="fill:blue; stroke:pink; stroke - width:1; fill - opacity:0.1; stroke - opacity:0.9" /><rect x="2560" y="502" width="50" height="498" style="fill:blue; stroke:pink; stroke - width:1; fill - opacity:0.1; stroke - opacity:0.9" /><rect x="2612" y="502" width="798" height="498" style="fill:blue; stroke:pink; stroke - width:1; fill - opacity:0.1; stroke - opacity:0.9" /><rect x="3412" y="502" width="4588" height="498" style="fill:blue; stroke:pink; stroke - width:1; fill - opacity:0.1; stroke - opacity:0.9" /></svg>