<!DOCTYPE svg PUBLIC "-//W3C//DTD SVG 1.1//EN"
"http://www.w3.org/Graphics/SVG/1.1/DTD/svg11.dtd"><svg xmlns="http://www.w3.org/2000/svg" width="46340" height="46340"><rect x="0" y="0" width="463" height="463" style="fill:red; stroke:pink; stroke - width:1; fill - opacity:0.1; stroke - opacity:0.9" /><rect x="0" y="465" width="463" height="4" style="fill:blue; stroke:pink; stroke - width:1; fill - opacity:0.1; stroke - opacity:0.9" /><rect x="0" y="471" width="463" height="40" style="fill:blue; stroke:pink; stroke - width:1; fill - opacity:0.1; stroke - opacity:0.9" /><rect x="0" y="513" width="463" height="4" style="fill:blue; stroke:pink; stroke - width:1; fill - opacity:0.1; stroke - opacity:0.9" /><rect x="0" y="519" width="463" height="4" style="fill:blue; stroke:pink; stroke - width:1; fill - opacity:0.1; stroke - opacity:0.9" /><rect x="0" y="525" width="4" height="4" style="fill:red; stroke:pink; stroke - width:1; fill - opacity:0.1; stroke - opacity:0.9" /><rect x="0" y="531" width="4" height="4103" style="fill:blue; stroke:pink; stroke - width:1; fill - opacity:0.1; stroke - opacity:0.9" /><rect x="6" y="525" width="4" height="4" style="fill:red; stroke:pink; stroke - width:1; fill - opacity:0.1; stroke - opacity:0.9" /><rect x="12" y="525" width="451" height="4" style="fill:blue; stroke:pink; stroke - width:1; fill - opacity:0.1; stroke - opacity:0.9" /><rect x="6" y="531" width="457" height="4103" style="fill:blue; stroke:pink; stroke - width:1; fill - opacity:0.1; stroke - opacity:0.9" /><rect x="465" y="0" width="46" height="4" style="fill:blue; stroke:pink; stroke - width:1; fill - opacity:0.1; stroke - opacity:0.9" /><rect x="465" y="6" width="4" height="4" style="fill:red; stroke:pink; stroke - width:1; fill - opacity:0.1; stroke - opacity:0.9" /><rect x="471" y="6" width="40" height="4" style="fill:blue; stroke:pink; stroke - width:1; fill - opacity:0.1; stroke - opacity:0.9" /><rect x="465" y="12" width="4" height="4622" style="fill:blue; stroke:pink; stroke - width:1; fill - opacity:0.1; stroke - opacity:0.9" /><rect x="471" y="12" width="40" height="4622" style="fill:blue; stroke:pink; stroke - width:1; fill - opacity:0.1; stroke - opacity:0.9" /><rect x="513" y="0" width="4" height="4" style="fill:red; stroke:pink; stroke - width:1; fill - opacity:0.1; stroke - opacity:0.9" /><rect x="519" y="0" width="4" height="4" style="fill:red; stroke:pink; stroke - width:1; fill - opacity:0.1; stroke - opacity:0.9" /><rect x="525" y="0" width="34" height="4" style="fill:blue; stroke:pink; stroke - width:1; fill - opacity:0.1; stroke - opacity:0.9" /><rect x="513" y="6" width="46" height="4" style="fill:blue; stroke:pink; stroke - width:1; fill - opacity:0.1; stroke - opacity:0.9" /><rect x="513" y="12" width="46" height="4622" style="fill:blue; stroke:pink; stroke - width:1; fill - opacity:0.1; stroke - opacity:0.9" /><rect x="561" y="0" width="4" height="4" style="fill:red; stroke:pink; stroke - width:1; fill - opacity:0.1; stroke - opacity:0.9" /><rect x="567" y="0" width="361" height="4" style="fill:blue; stroke:pink; stroke - width:1; fill - opacity:0.1; stroke - opacity:0.9" /><rect x="561" y="6" width="367" height="4628" style="fill:blue; stroke:pink; stroke - width:1; fill - opacity:0.1; stroke - opacity:0.9" /><rect x="930" y="0" width="46" height="46" style="fill:red; stroke:pink; stroke - width:1; fill - opacity:0.1; stroke - opacity:0.9" /><rect x="930" y="48" width="4" height="4" style="fill:red; stroke:pink; stroke - width:1; fill - opacity:0.1; stroke - opacity:0.9" /><rect x="936" y="48" width="40" height="4" style="fill:blue; stroke:pink; stroke - width:1; fill - opacity:0.1; stroke - opacity:0.9" /><rect x="930" y="54" width="4" height="4580" style="fill:blue; stroke:pink; stroke - width:1; fill - opacity:0.1; stroke - opacity:0.9" /><rect x="936" y="54" width="4" height="4" style="fill:red; stroke:pink; stroke - width:1; fill - opacity:0.1; stroke - opacity:0.9" /><rect x="936" y="60" width="4" height="4574" style="fill:blue; stroke:pink; stroke - width:1; fill - opacity:0.1; stroke - opacity:0.9" /><rect x="942" y="54" width="34" height="4580" style="fill:blue; stroke:pink; stroke - width:1; fill - opacity:0.1; stroke - opacity:0.9" /><rect x="978" y="0" width="4" height="4" style="fill:red; stroke:pink; stroke - width:1; fill - opacity:0.1; stroke - opacity:0.9" /><rect x="978" y="6" width="4" height="4628" style="fill:blue; stroke:pink; stroke - width:1; fill - opacity:0.1; stroke - opacity:0.9" /><rect x="984" y="0" width="45356" height="4" style="fill:blue; stroke:pink; stroke - width:1; fill - opacity:0.1; stroke - opacity:0.9" /><rect x="984" y="6" width="45356" height="4" style="fill:blue; stroke:pink; stroke - width:1; fill - opacity:0.1; stroke - opacity:0.9" /><rect x="984" y="12" width="45356" height="4622" style="fill:blue; stroke:pink; stroke - width:1; fill - opacity:0.1; stroke - opacity:0.9" /><rect x="0" y="4636" width="4634" height="4634" style="fill:red; stroke:pink; stroke - width:1; fill - opacity:0.1; stroke - opacity:0.9" /><rect x="0" y="9272" width="4634" height="4634" style="fill:red; stroke:pink; stroke - width:1; fill - opacity:0.1; stroke - opacity:0.9" /><rect x="0" y="13908" width="46" height="46" style="fill:red; stroke:pink; stroke - width:1; fill - opacity:0.1; stroke - opacity:0.9" /><rect x="0" y="13956" width="46" height="46" style="fill:red; stroke:pink; stroke - width:1; fill - opacity:0.1; stroke - opacity:0.9" /><rect x="0" y="14004" width="46" height="4" style="fill:blue; stroke:pink; stroke - width:1; fill - opacity:0.1; stroke - opacity:0.9" /><rect x="0" y="14010" width="46" height="32330" style="fill:blue; stroke:pink; stroke - width:1; fill - opacity:0.1; stroke - opacity:0.9" /><rect x="48" y="13908" width="4" height="4" style="fill:red; stroke:pink; stroke - width:1; fill - opacity:0.1; stroke - opacity:0.9" /><rect x="54" y="13908" width="40" height="4" style="fill:blue; stroke:pink; stroke - width:1; fill - opacity:0.1; stroke - opacity:0.9" /><rect x="48" y="13914" width="4" height="32426" style="fill:blue; stroke:pink; stroke - width:1; fill - opacity:0.1; stroke - opacity:0.9" /><rect x="54" y="13914" width="40" height="32426" style="fill:blue; stroke:pink; stroke - width:1; fill - opacity:0.1; stroke - opacity:0.9" /><rect x="96" y="13908" width="4" height="4" style="fill:red; stroke:pink; stroke - width:1; fill - opacity:0.1; stroke - opacity:0.9" /><rect x="102" y="13908" width="4" height="4" style="fill:red; stroke:pink; stroke - width:1; fill - opacity:0.1; stroke - opacity:0.9" /><rect x="108" y="13908" width="355" height="4" style="fill:blue; stroke:pink; stroke - width:1; fill - opacity:0.1; stroke - opacity:0.9" /><rect x="96" y="13914" width="367" height="32426" style="fill:blue; stroke:pink; stroke - width:1; fill - opacity:0.1; stroke - opacity:0.9" /><rect x="465" y="13908" width="46" height="46" style="fill:red; stroke:pink; stroke - width:1; fill - opacity:0.1; stroke - opacity:0.9" /><rect x="465" y="13956" width="46" height="4" style="fill:blue; stroke:pink; stroke - width:1; fill - opacity:0.1; stroke - opacity:0.9" /><rect x="465" y="13962" width="4" height="32378" style="fill:blue; stroke:pink; stroke - width:1; fill - opacity:0.1; stroke - opacity:0.9" /><rect x="471" y="13962" width="40" height="32378" style="fill:blue; stroke:pink; stroke - width:1; fill - opacity:0.1; stroke - opacity:0.9" /><rect x="513" y="13908" width="46" height="4" style="fill:blue; stroke:pink; stroke - width:1; fill - opacity:0.1; stroke - opacity:0.9" /><rect x="513" y="13914" width="46" height="4" style="fill:blue; stroke:pink; stroke - width:1; fill - opacity:0.1; stroke - opacity:0.9" /><rect x="513" y="13920" width="46" height="32420" style="fill:blue; stroke:pink; stroke - width:1; fill - opacity:0.1; stroke - opacity:0.9" /><rect x="561" y="13908" width="4073" height="32432" style="fill:blue; stroke:pink; stroke - width:1; fill - opacity:0.1; stroke - opacity:0.9" /><rect x="4636" y="4636" width="4634" height="4634" style="fill:red; stroke:pink; stroke - width:1; fill - opacity:0.1; stroke - opacity:0.9" /><rect x="9272" y="4636" width="4634" height="4634" style="fill:red; stroke:pink; stroke - width:1; fill - opacity:0.1; stroke - opacity:0.9" /><rect x="13908" y="4636" width="4" height="4" style="fill:red; stroke:pink; stroke - width:1; fill - opacity:0.1; stroke - opacity:0.9" /><rect x="13914" y="4636" width="40" height="4" style="fill:blue; stroke:pink; stroke - width:1; fill - opacity:0.1; stroke - opacity:0.9" /><rect x="13908" y="4642" width="46" height="457" style="fill:blue; stroke:pink; stroke - width:1; fill - opacity:0.1; stroke - opacity:0.9" /><rect x="13956" y="4636" width="46" height="4" style="fill:blue; stroke:pink; stroke - width:1; fill - opacity:0.1; stroke - opacity:0.9" /><rect x="13956" y="4642" width="4" height="457" style="fill:blue; stroke:pink; stroke - width:1; fill - opacity:0.1; stroke - opacity:0.9" /><rect x="13962" y="4642" width="40" height="4" style="fill:blue; stroke:pink; stroke - width:1; fill - opacity:0.1; stroke - opacity:0.9" /><rect x="13962" y="4648" width="40" height="451" style="fill:blue; stroke:pink; stroke - width:1; fill - opacity:0.1; stroke - opacity:0.9" /><rect x="14004" y="4636" width="4" height="463" style="fill:blue; stroke:pink; stroke - width:1; fill - opacity:0.1; stroke - opacity:0.9" /><rect x="14010" y="4636" width="4532" height="463" style="fill:blue; stroke:pink; stroke - width:1; fill - opacity:0.1; stroke - opacity:0.9" /><rect x="13908" y="5101" width="4" height="46" style="fill:blue; stroke:pink; stroke - width:1; fill - opacity:0.1; stroke - opacity:0.9" /><rect x="13914" y="5101" width="40" height="46" style="fill:blue; stroke:pink; stroke - width:1; fill - opacity:0.1; stroke - opacity:0.9" /><rect x="13956" y="5101" width="4586" height="4" style="fill:blue; stroke:pink; stroke - width:1; fill - opacity:0.1; stroke - opacity:0.9" /><rect x="13956" y="5107" width="4586" height="40" style="fill:blue; stroke:pink; stroke - width:1; fill - opacity:0.1; stroke - opacity:0.9" /><rect x="13908" y="5149" width="4634" height="4" style="fill:blue; stroke:pink; stroke - width:1; fill - opacity:0.1; stroke - opacity:0.9" /><rect x="13908" y="5155" width="4634" height="40" style="fill:blue; stroke:pink; stroke - width:1; fill - opacity:0.1; stroke - opacity:0.9" /><rect x="13908" y="5197" width="4" height="4" style="fill:red; stroke:pink; stroke - width:1; fill - opacity:0.1; stroke - opacity:0.9" /><rect x="13914" y="5197" width="40" height="4" style="fill:blue; stroke:pink; stroke - width:1; fill - opacity:0.1; stroke - opacity:0.9" /><rect x="13908" y="5203" width="46" height="4" style="fill:blue; stroke:pink; stroke - width:1; fill - opacity:0.1; stroke - opacity:0.9" /><rect x="13908" y="5209" width="46" height="4061" style="fill:blue; stroke:pink; stroke - width:1; fill - opacity:0.1; stroke - opacity:0.9" /><rect x="13956" y="5197" width="4" height="4" style="fill:red; stroke:pink; stroke - width:1; fill - opacity:0.1; stroke - opacity:0.9" /><rect x="13956" y="5203" width="4" height="4067" style="fill:blue; stroke:pink; stroke - width:1; fill - opacity:0.1; stroke - opacity:0.9" /><rect x="13962" y="5197" width="40" height="4073" style="fill:blue; stroke:pink; stroke - width:1; fill - opacity:0.1; stroke - opacity:0.9" /><rect x="14004" y="5197" width="4538" height="4" style="fill:blue; stroke:pink; stroke - width:1; fill - opacity:0.1; stroke - opacity:0.9" /><rect x="14004" y="5203" width="4538" height="4067" style="fill:blue; stroke:pink; stroke - width:1; fill - opacity:0.1; stroke - opacity:0.9" /><rect x="18544" y="4636" width="4" height="46" style="fill:blue; stroke:pink; stroke - width:1; fill - opacity:0.1; stroke - opacity:0.9" /><rect x="18550" y="4636" width="4" height="46" style="fill:blue; stroke:pink; stroke - width:1; fill - opacity:0.1; stroke - opacity:0.9" /><rect x="18556" y="4636" width="451" height="46" style="fill:blue; stroke:pink; stroke - width:1; fill - opacity:0.1; stroke - opacity:0.9" /><rect x="18544" y="4684" width="463" height="4" style="fill:blue; stroke:pink; stroke - width:1; fill - opacity:0.1; stroke - opacity:0.9" /><rect x="18544" y="4690" width="463" height="40" style="fill:blue; stroke:pink; stroke - width:1; fill - opacity:0.1; stroke - opacity:0.9" /><rect x="18544" y="4732" width="463" height="4538" style="fill:blue; stroke:pink; stroke - width:1; fill - opacity:0.1; stroke - opacity:0.9" /><rect x="19009" y="4636" width="4" height="46" style="fill:blue; stroke:pink; stroke - width:1; fill - opacity:0.1; stroke - opacity:0.9" /><rect x="19015" y="4636" width="27325" height="46" style="fill:blue; stroke:pink; stroke - width:1; fill - opacity:0.1; stroke - opacity:0.9" /><rect x="19009" y="4684" width="4" height="46" style="fill:blue; stroke:pink; stroke - width:1; fill - opacity:0.1; stroke - opacity:0.9" /><rect x="19015" y="4684" width="27325" height="46" style="fill:blue; stroke:pink; stroke - width:1; fill - opacity:0.1; stroke - opacity:0.9" /><rect x="19009" y="4732" width="27331" height="4538" style="fill:blue; stroke:pink; stroke - width:1; fill - opacity:0.1; stroke - opacity:0.9" /><rect x="4636" y="9272" width="46" height="46" style="fill:blue; stroke:pink; stroke - width:1; fill - opacity:0.1; stroke - opacity:0.9" /><rect x="4636" y="9320" width="46" height="415" style="fill:blue; stroke:pink; stroke - width:1; fill - opacity:0.1; stroke - opacity:0.9" /><rect x="4684" y="9272" width="4586" height="463" style="fill:blue; stroke:pink; stroke - width:1; fill - opacity:0.1; stroke - opacity:0.9" /><rect x="4636" y="9737" width="4634" height="463" style="fill:blue; stroke:pink; stroke - width:1; fill - opacity:0.1; stroke - opacity:0.9" /><rect x="4636" y="10202" width="4" height="46" style="fill:blue; stroke:pink; stroke - width:1; fill - opacity:0.1; stroke - opacity:0.9" /><rect x="4642" y="10202" width="4628" height="46" style="fill:blue; stroke:pink; stroke - width:1; fill - opacity:0.1; stroke - opacity:0.9" /><rect x="4636" y="10250" width="4634" height="46" style="fill:blue; stroke:pink; stroke - width:1; fill - opacity:0.1; stroke - opacity:0.9" /><rect x="4636" y="10298" width="4634" height="367" style="fill:blue; stroke:pink; stroke - width:1; fill - opacity:0.1; stroke - opacity:0.9" /><rect x="4636" y="10667" width="46" height="35673" style="fill:blue; stroke:pink; stroke - width:1; fill - opacity:0.1; stroke - opacity:0.9" /><rect x="4684" y="10667" width="4586" height="35673" style="fill:blue; stroke:pink; stroke - width:1; fill - opacity:0.1; stroke - opacity:0.9" /><rect x="9272" y="9272" width="46" height="4634" style="fill:blue; stroke:pink; stroke - width:1; fill - opacity:0.1; stroke - opacity:0.9" /><rect x="9320" y="9272" width="415" height="46" style="fill:blue; stroke:pink; stroke - width:1; fill - opacity:0.1; stroke - opacity:0.9" /><rect x="9320" y="9320" width="415" height="4586" style="fill:blue; stroke:pink; stroke - width:1; fill - opacity:0.1; stroke - opacity:0.9" /><rect x="9737" y="9272" width="36603" height="4634" style="fill:blue; stroke:pink; stroke - width:1; fill - opacity:0.1; stroke - opacity:0.9" /><rect x="9272" y="13908" width="463" height="463" style="fill:red; stroke:pink; stroke - width:1; fill - opacity:0.1; stroke - opacity:0.9" /><rect x="9272" y="14373" width="463" height="46" style="fill:blue; stroke:pink; stroke - width:1; fill - opacity:0.1; stroke - opacity:0.9" /><rect x="9272" y="14421" width="463" height="4121" style="fill:blue; stroke:pink; stroke - width:1; fill - opacity:0.1; stroke - opacity:0.9" /><rect x="9737" y="13908" width="46" height="46" style="fill:red; stroke:pink; stroke - width:1; fill - opacity:0.1; stroke - opacity:0.9" /><rect x="9737" y="13956" width="46" height="415" style="fill:blue; stroke:pink; stroke - width:1; fill - opacity:0.1; stroke - opacity:0.9" /><rect x="9785" y="13908" width="36555" height="46" style="fill:blue; stroke:pink; stroke - width:1; fill - opacity:0.1; stroke - opacity:0.9" /><rect x="9785" y="13956" width="36555" height="415" style="fill:blue; stroke:pink; stroke - width:1; fill - opacity:0.1; stroke - opacity:0.9" /><rect x="9737" y="14373" width="36603" height="46" style="fill:blue; stroke:pink; stroke - width:1; fill - opacity:0.1; stroke - opacity:0.9" /><rect x="9737" y="14421" width="36603" height="4121" style="fill:blue; stroke:pink; stroke - width:1; fill - opacity:0.1; stroke - opacity:0.9" /><rect x="9272" y="18544" width="463" height="463" style="fill:red; stroke:pink; stroke - width:1; fill - opacity:0.1; stroke - opacity:0.9" /><rect x="9272" y="19009" width="463" height="463" style="fill:red; stroke:pink; stroke - width:1; fill - opacity:0.1; stroke - opacity:0.9" /><rect x="9272" y="19474" width="46" height="26866" style="fill:blue; stroke:pink; stroke - width:1; fill - opacity:0.1; stroke - opacity:0.9" /><rect x="9320" y="19474" width="415" height="46" style="fill:blue; stroke:pink; stroke - width:1; fill - opacity:0.1; stroke - opacity:0.9" /><rect x="9320" y="19522" width="415" height="26818" style="fill:blue; stroke:pink; stroke - width:1; fill - opacity:0.1; stroke - opacity:0.9" /><rect x="9737" y="18544" width="463" height="27796" style="fill:blue; stroke:pink; stroke - width:1; fill - opacity:0.1; stroke - opacity:0.9" /><rect x="10202" y="18544" width="46" height="463" style="fill:blue; stroke:pink; stroke - width:1; fill - opacity:0.1; stroke - opacity:0.9" /><rect x="10250" y="18544" width="36090" height="463" style="fill:blue; stroke:pink; stroke - width:1; fill - opacity:0.1; stroke - opacity:0.9" /><rect x="10202" y="19009" width="46" height="27331" style="fill:blue; stroke:pink; stroke - width:1; fill - opacity:0.1; stroke - opacity:0.9" /><rect x="10250" y="19009" width="46" height="27331" style="fill:blue; stroke:pink; stroke - width:1; fill - opacity:0.1; stroke - opacity:0.9" /><rect x="10298" y="19009" width="36042" height="46" style="fill:blue; stroke:pink; stroke - width:1; fill - opacity:0.1; stroke - opacity:0.9" /><rect x="10298" y="19057" width="36042" height="27283" style="fill:blue; stroke:pink; stroke - width:1; fill - opacity:0.1; stroke - opacity:0.9" /> <text x="0" y="15" fill="white">Waste percentage: 0.105302%</text> </svg>