<!DOCTYPE svg PUBLIC "-//W3C//DTD SVG 1.1//EN"
"http://www.w3.org/Graphics/SVG/1.1/DTD/svg11.dtd"><svg xmlns="http://www.w3.org/2000/svg" width="8000" height="1000"><rect x="0" y="0" width="500" height="200" style="fill:red; stroke:pink; stroke - width:1; fill - opacity:0.1; stroke - opacity:0.9" /><rect x="0" y="202" width="500" height="200" style="fill:red; stroke:pink; stroke - width:1; fill - opacity:0.1; stroke - opacity:0.9" /><rect x="0" y="404" width="50" height="250" style="fill:red; stroke:pink; stroke - width:1; fill - opacity:0.1; stroke - opacity:0.9" /><rect x="52" y="404" width="198" height="250" style="fill:blue; stroke:pink; stroke - width:1; fill - opacity:0.1; stroke - opacity:0.9" /><rect x="0" y="656" width="250" height="46" style="fill:blue; stroke:pink; stroke - width:1; fill - opacity:0.1; stroke - opacity:0.9" /><rect x="252" y="404" width="248" height="50" style="fill:blue; stroke:pink; stroke - width:1; fill - opacity:0.1; stroke - opacity:0.9" /><rect x="252" y="456" width="248" height="246" style="fill:blue; stroke:pink; stroke - width:1; fill - opacity:0.1; stroke - opacity:0.9" /><rect x="0" y="704" width="200" height="50" style="fill:blue; stroke:pink; stroke - width:1; fill - opacity:0.1; stroke - opacity:0.9" /><rect x="0" y="756" width="200" height="244" style="fill:blue; stroke:pink; stroke - width:1; fill - opacity:0.1; stroke - opacity:0.9" /><rect x="202" y="704" width="250" height="50" style="fill:red; stroke:pink; stroke - width:1; fill - opacity:0.1; stroke - opacity:0.9" /><rect x="454" y="704" width="46" height="50" style="fill:blue; stroke:pink; stroke - width:1; fill - opacity:0.1; stroke - opacity:0.9" /><rect x="202" y="756" width="250" height="50" style="fill:red; stroke:pink; stroke - width:1; fill - opacity:0.1; stroke - opacity:0.9" /><rect x="202" y="808" width="250" height="50" style="fill:red; stroke:pink; stroke - width:1; fill - opacity:0.1; stroke - opacity:0.9" /><rect x="202" y="860" width="250" height="140" style="fill:blue; stroke:pink; stroke - width:1; fill - opacity:0.1; stroke - opacity:0.9" /><rect x="454" y="756" width="46" height="244" style="fill:blue; stroke:pink; stroke - width:1; fill - opacity:0.1; stroke - opacity:0.9" /><rect x="502" y="0" width="200" height="500" style="fill:red; stroke:pink; stroke - width:1; fill - opacity:0.1; stroke - opacity:0.9" /><rect x="502" y="502" width="50" height="498" style="fill:blue; stroke:pink; stroke - width:1; fill - opacity:0.1; stroke - opacity:0.9" /><rect x="554" y="502" width="148" height="50" style="fill:blue; stroke:pink; stroke - width:1; fill - opacity:0.1; stroke - opacity:0.9" /><rect x="554" y="554" width="148" height="198" style="fill:blue; stroke:pink; stroke - width:1; fill - opacity:0.1; stroke - opacity:0.9" /><rect x="554" y="754" width="148" height="246" style="fill:blue; stroke:pink; stroke - width:1; fill - opacity:0.1; stroke - opacity:0.9" /><rect x="704" y="0" width="250" height="50" style="fill:red; stroke:pink; stroke - width:1; fill - opacity:0.1; stroke - opacity:0.9" /><rect x="956" y="0" width="248" height="50" style="fill:blue; stroke:pink; stroke - width:1; fill - opacity:0.1; stroke - opacity:0.9" /><rect x="704" y="52" width="50" height="50" style="fill:blue; stroke:pink; stroke - width:1; fill - opacity:0.1; stroke - opacity:0.9" /><rect x="704" y="104" width="50" height="396" style="fill:blue; stroke:pink; stroke - width:1; fill - opacity:0.1; stroke - opacity:0.9" /><rect x="756" y="52" width="250" height="448" style="fill:blue; stroke:pink; stroke - width:1; fill - opacity:0.1; stroke - opacity:0.9" /><rect x="1008" y="52" width="196" height="448" style="fill:blue; stroke:pink; stroke - width:1; fill - opacity:0.1; stroke - opacity:0.9" /><rect x="1206" y="0" width="90" height="50" style="fill:blue; stroke:pink; stroke - width:1; fill - opacity:0.1; stroke - opacity:0.9" /><rect x="1206" y="52" width="90" height="198" style="fill:blue; stroke:pink; stroke - width:1; fill - opacity:0.1; stroke - opacity:0.9" /><rect x="1206" y="252" width="90" height="248" style="fill:blue; stroke:pink; stroke - width:1; fill - opacity:0.1; stroke - opacity:0.9" /><rect x="1298" y="0" width="90" height="90" style="fill:blue; stroke:pink; stroke - width:1; fill - opacity:0.1; stroke - opacity:0.9" /><rect x="1390" y="0" width="90" height="90" style="fill:blue; stroke:pink; stroke - width:1; fill - opacity:0.1; stroke - opacity:0.9" /><rect x="1482" y="0" width="50" height="90" style="fill:blue; stroke:pink; stroke - width:1; fill - opacity:0.1; stroke - opacity:0.9" /><rect x="1534" y="0" width="50" height="90" style="fill:blue; stroke:pink; stroke - width:1; fill - opacity:0.1; stroke - opacity:0.9" /><rect x="1586" y="0" width="6414" height="50" style="fill:blue; stroke:pink; stroke - width:1; fill - opacity:0.1; stroke - opacity:0.9" /><rect x="1586" y="52" width="6414" height="38" style="fill:blue; stroke:pink; stroke - width:1; fill - opacity:0.1; stroke - opacity:0.9" /><rect x="1298" y="92" width="850" height="90" style="fill:red; stroke:pink; stroke - width:1; fill - opacity:0.1; stroke - opacity:0.9" /><rect x="1298" y="184" width="250" height="50" style="fill:red; stroke:pink; stroke - width:1; fill - opacity:0.1; stroke - opacity:0.9" /><rect x="1298" y="236" width="250" height="198" style="fill:blue; stroke:pink; stroke - width:1; fill - opacity:0.1; stroke - opacity:0.9" /><rect x="1550" y="184" width="50" height="250" style="fill:red; stroke:pink; stroke - width:1; fill - opacity:0.1; stroke - opacity:0.9" /><rect x="1602" y="184" width="546" height="250" style="fill:blue; stroke:pink; stroke - width:1; fill - opacity:0.1; stroke - opacity:0.9" /><rect x="1298" y="436" width="850" height="50" style="fill:blue; stroke:pink; stroke - width:1; fill - opacity:0.1; stroke - opacity:0.9" /><rect x="1298" y="488" width="850" height="12" style="fill:blue; stroke:pink; stroke - width:1; fill - opacity:0.1; stroke - opacity:0.9" /><rect x="2150" y="92" width="850" height="90" style="fill:red; stroke:pink; stroke - width:1; fill - opacity:0.1; stroke - opacity:0.9" /><rect x="2150" y="184" width="50" height="250" style="fill:red; stroke:pink; stroke - width:1; fill - opacity:0.1; stroke - opacity:0.9" /><rect x="2150" y="436" width="50" height="64" style="fill:blue; stroke:pink; stroke - width:1; fill - opacity:0.1; stroke - opacity:0.9" /><rect x="2202" y="184" width="798" height="50" style="fill:blue; stroke:pink; stroke - width:1; fill - opacity:0.1; stroke - opacity:0.9" /><rect x="2202" y="236" width="798" height="264" style="fill:blue; stroke:pink; stroke - width:1; fill - opacity:0.1; stroke - opacity:0.9" /><rect x="3002" y="92" width="50" height="250" style="fill:red; stroke:pink; stroke - width:1; fill - opacity:0.1; stroke - opacity:0.9" /><rect x="3002" y="344" width="50" height="156" style="fill:blue; stroke:pink; stroke - width:1; fill - opacity:0.1; stroke - opacity:0.9" /><rect x="3054" y="92" width="50" height="250" style="fill:red; stroke:pink; stroke - width:1; fill - opacity:0.1; stroke - opacity:0.9" /><rect x="3106" y="92" width="4894" height="250" style="fill:blue; stroke:pink; stroke - width:1; fill - opacity:0.1; stroke - opacity:0.9" /><rect x="3054" y="344" width="4946" height="50" style="fill:blue; stroke:pink; stroke - width:1; fill - opacity:0.1; stroke - opacity:0.9" /><rect x="3054" y="396" width="4946" height="104" style="fill:blue; stroke:pink; stroke - width:1; fill - opacity:0.1; stroke - opacity:0.9" /><rect x="704" y="502" width="50" height="498" style="fill:blue; stroke:pink; stroke - width:1; fill - opacity:0.1; stroke - opacity:0.9" /><rect x="756" y="502" width="148" height="50" style="fill:blue; stroke:pink; stroke - width:1; fill - opacity:0.1; stroke - opacity:0.9" /><rect x="756" y="554" width="148" height="446" style="fill:blue; stroke:pink; stroke - width:1; fill - opacity:0.1; stroke - opacity:0.9" /><rect x="906" y="502" width="850" height="90" style="fill:red; stroke:pink; stroke - width:1; fill - opacity:0.1; stroke - opacity:0.9" /><rect x="1758" y="502" width="50" height="90" style="fill:blue; stroke:pink; stroke - width:1; fill - opacity:0.1; stroke - opacity:0.9" /><rect x="1810" y="502" width="6190" height="90" style="fill:blue; stroke:pink; stroke - width:1; fill - opacity:0.1; stroke - opacity:0.9" /><rect x="906" y="594" width="50" height="90" style="fill:blue; stroke:pink; stroke - width:1; fill - opacity:0.1; stroke - opacity:0.9" /><rect x="958" y="594" width="50" height="90" style="fill:blue; stroke:pink; stroke - width:1; fill - opacity:0.1; stroke - opacity:0.9" /><rect x="1010" y="594" width="6990" height="90" style="fill:blue; stroke:pink; stroke - width:1; fill - opacity:0.1; stroke - opacity:0.9" /><rect x="906" y="686" width="7094" height="90" style="fill:blue; stroke:pink; stroke - width:1; fill - opacity:0.1; stroke - opacity:0.9" /><rect x="906" y="778" width="7094" height="222" style="fill:blue; stroke:pink; stroke - width:1; fill - opacity:0.1; stroke - opacity:0.9" /> <text x="0" y="15" fill="white">Waste percentage: 1.7523%</text> </svg>