<!DOCTYPE svg PUBLIC "-//W3C//DTD SVG 1.1//EN"
"http://www.w3.org/Graphics/SVG/1.1/DTD/svg11.dtd"><svg xmlns="http://www.w3.org/2000/svg" width="100" height="100"><rect x="0" y="0" width="40" height="40" style="fill:red; stroke:pink; stroke - width:1; fill - opacity:0.1; stroke - opacity:0.9" /><rect x="0" y="42" width="25" height="25" style="fill:red; stroke:pink; stroke - width:1; fill - opacity:0.1; stroke - opacity:0.9" /><rect x="27" y="42" width="13" height="25" style="fill:blue; stroke:pink; stroke - width:1; fill - opacity:0.1; stroke - opacity:0.9" /><rect x="0" y="69" width="25" height="25" style="fill:red; stroke:pink; stroke - width:1; fill - opacity:0.1; stroke - opacity:0.9" /><rect x="0" y="96" width="25" height="4" style="fill:blue; stroke:pink; stroke - width:1; fill - opacity:0.1; stroke - opacity:0.9" /><rect x="27" y="69" width="13" height="31" style="fill:blue; stroke:pink; stroke - width:1; fill - opacity:0.1; stroke - opacity:0.9" /><rect x="42" y="0" width="25" height="25" style="fill:red; stroke:pink; stroke - width:1; fill - opacity:0.1; stroke - opacity:0.9" /><rect x="69" y="0" width="25" height="25" style="fill:red; stroke:pink; stroke - width:1; fill - opacity:0.1; stroke - opacity:0.9" /><rect x="96" y="0" width="4" height="25" style="fill:blue; stroke:pink; stroke - width:1; fill - opacity:0.1; stroke - opacity:0.9" /><rect x="42" y="27" width="40" height="8" style="fill:red; stroke:pink; stroke - width:1; fill - opacity:0.1; stroke - opacity:0.9" /><rect x="84" y="27" width="16" height="8" style="fill:blue; stroke:pink; stroke - width:1; fill - opacity:0.1; stroke - opacity:0.9" /><rect x="42" y="37" width="58" height="3" style="fill:blue; stroke:pink; stroke - width:1; fill - opacity:0.1; stroke - opacity:0.9" /><rect x="42" y="42" width="25" height="25" style="fill:red; stroke:pink; stroke - width:1; fill - opacity:0.1; stroke - opacity:0.9" /><rect x="69" y="42" width="25" height="25" style="fill:red; stroke:pink; stroke - width:1; fill - opacity:0.1; stroke - opacity:0.9" /><rect x="96" y="42" width="4" height="25" style="fill:blue; stroke:pink; stroke - width:1; fill - opacity:0.1; stroke - opacity:0.9" /><rect x="42" y="69" width="25" height="25" style="fill:red; stroke:pink; stroke - width:1; fill - opacity:0.1; stroke - opacity:0.9" /><rect x="42" y="96" width="25" height="4" style="fill:blue; stroke:pink; stroke - width:1; fill - opacity:0.1; stroke - opacity:0.9" /><rect x="69" y="69" width="25" height="25" style="fill:red; stroke:pink; stroke - width:1; fill - opacity:0.1; stroke - opacity:0.9" /><rect x="69" y="96" width="25" height="4" style="fill:blue; stroke:pink; stroke - width:1; fill - opacity:0.1; stroke - opacity:0.9" /><rect x="96" y="69" width="4" height="31" style="fill:blue; stroke:pink; stroke - width:1; fill - opacity:0.1; stroke - opacity:0.9" /> <text x="0" y="15" fill="white">Waste percentage: 0%</text> </svg>