<!DOCTYPE svg PUBLIC "-//W3C//DTD SVG 1.1//EN"
"http://www.w3.org/Graphics/SVG/1.1/DTD/svg11.dtd"><svg xmlns="http://www.w3.org/2000/svg" width="1000" height="2000"><rect x="0" y="0" width="22" height="33" style="fill:red; stroke:pink; stroke - width:1; fill - opacity:0.1; stroke - opacity:0.9" /><rect x="0" y="35" width="22" height="22" style="fill:blue; stroke:pink; stroke - width:1; fill - opacity:0.1; stroke - opacity:0.9" /><rect x="0" y="59" width="22" height="33" style="fill:red; stroke:pink; stroke - width:1; fill - opacity:0.1; stroke - opacity:0.9" /><rect x="0" y="94" width="22" height="22" style="fill:blue; stroke:pink; stroke - width:1; fill - opacity:0.1; stroke - opacity:0.9" /><rect x="0" y="118" width="22" height="33" style="fill:red; stroke:pink; stroke - width:1; fill - opacity:0.1; stroke - opacity:0.9" /><rect x="0" y="153" width="22" height="22" style="fill:blue; stroke:pink; stroke - width:1; fill - opacity:0.1; stroke - opacity:0.9" /><rect x="0" y="177" width="22" height="33" style="fill:red; stroke:pink; stroke - width:1; fill - opacity:0.1; stroke - opacity:0.9" /><rect x="0" y="212" width="22" height="22" style="fill:blue; stroke:pink; stroke - width:1; fill - opacity:0.1; stroke - opacity:0.9" /><rect x="0" y="236" width="22" height="22" style="fill:blue; stroke:pink; stroke - width:1; fill - opacity:0.1; stroke - opacity:0.9" /><rect x="0" y="260" width="22" height="33" style="fill:red; stroke:pink; stroke - width:1; fill - opacity:0.1; stroke - opacity:0.9" /><rect x="0" y="295" width="22" height="22" style="fill:blue; stroke:pink; stroke - width:1; fill - opacity:0.1; stroke - opacity:0.9" /><rect x="0" y="319" width="22" height="33" style="fill:red; stroke:pink; stroke - width:1; fill - opacity:0.1; stroke - opacity:0.9" /><rect x="0" y="354" width="22" height="33" style="fill:red; stroke:pink; stroke - width:1; fill - opacity:0.1; stroke - opacity:0.9" /><rect x="0" y="389" width="22" height="1611" style="fill:blue; stroke:pink; stroke - width:1; fill - opacity:0.1; stroke - opacity:0.9" /><rect x="24" y="0" width="22" height="33" style="fill:red; stroke:pink; stroke - width:1; fill - opacity:0.1; stroke - opacity:0.9" /><rect x="24" y="35" width="22" height="22" style="fill:blue; stroke:pink; stroke - width:1; fill - opacity:0.1; stroke - opacity:0.9" /><rect x="24" y="59" width="22" height="33" style="fill:red; stroke:pink; stroke - width:1; fill - opacity:0.1; stroke - opacity:0.9" /><rect x="24" y="94" width="22" height="33" style="fill:red; stroke:pink; stroke - width:1; fill - opacity:0.1; stroke - opacity:0.9" /><rect x="24" y="129" width="22" height="33" style="fill:red; stroke:pink; stroke - width:1; fill - opacity:0.1; stroke - opacity:0.9" /><rect x="24" y="164" width="22" height="22" style="fill:blue; stroke:pink; stroke - width:1; fill - opacity:0.1; stroke - opacity:0.9" /><rect x="24" y="188" width="22" height="22" style="fill:blue; stroke:pink; stroke - width:1; fill - opacity:0.1; stroke - opacity:0.9" /><rect x="24" y="212" width="22" height="22" style="fill:blue; stroke:pink; stroke - width:1; fill - opacity:0.1; stroke - opacity:0.9" /><rect x="24" y="236" width="22" height="33" style="fill:red; stroke:pink; stroke - width:1; fill - opacity:0.1; stroke - opacity:0.9" /><rect x="24" y="271" width="22" height="1729" style="fill:blue; stroke:pink; stroke - width:1; fill - opacity:0.1; stroke - opacity:0.9" /><rect x="48" y="0" width="22" height="22" style="fill:blue; stroke:pink; stroke - width:1; fill - opacity:0.1; stroke - opacity:0.9" /><rect x="72" y="0" width="33" height="22" style="fill:red; stroke:pink; stroke - width:1; fill - opacity:0.1; stroke - opacity:0.9" /><rect x="107" y="0" width="33" height="22" style="fill:red; stroke:pink; stroke - width:1; fill - opacity:0.1; stroke - opacity:0.9" /><rect x="142" y="0" width="22" height="22" style="fill:blue; stroke:pink; stroke - width:1; fill - opacity:0.1; stroke - opacity:0.9" /><rect x="166" y="0" width="22" height="22" style="fill:blue; stroke:pink; stroke - width:1; fill - opacity:0.1; stroke - opacity:0.9" /><rect x="190" y="0" width="33" height="22" style="fill:red; stroke:pink; stroke - width:1; fill - opacity:0.1; stroke - opacity:0.9" /><rect x="225" y="0" width="33" height="22" style="fill:red; stroke:pink; stroke - width:1; fill - opacity:0.1; stroke - opacity:0.9" /><rect x="260" y="0" width="33" height="22" style="fill:red; stroke:pink; stroke - width:1; fill - opacity:0.1; stroke - opacity:0.9" /><rect x="295" y="0" width="22" height="22" style="fill:blue; stroke:pink; stroke - width:1; fill - opacity:0.1; stroke - opacity:0.9" /><rect x="319" y="0" width="22" height="22" style="fill:blue; stroke:pink; stroke - width:1; fill - opacity:0.1; stroke - opacity:0.9" /><rect x="343" y="0" width="657" height="22" style="fill:blue; stroke:pink; stroke - width:1; fill - opacity:0.1; stroke - opacity:0.9" /><rect x="48" y="24" width="952" height="9" style="fill:blue; stroke:pink; stroke - width:1; fill - opacity:0.1; stroke - opacity:0.9" /><rect x="48" y="35" width="22" height="22" style="fill:blue; stroke:pink; stroke - width:1; fill - opacity:0.1; stroke - opacity:0.9" /><rect x="72" y="35" width="33" height="22" style="fill:red; stroke:pink; stroke - width:1; fill - opacity:0.1; stroke - opacity:0.9" /><rect x="107" y="35" width="33" height="22" style="fill:red; stroke:pink; stroke - width:1; fill - opacity:0.1; stroke - opacity:0.9" /><rect x="142" y="35" width="22" height="22" style="fill:blue; stroke:pink; stroke - width:1; fill - opacity:0.1; stroke - opacity:0.9" /><rect x="166" y="35" width="22" height="22" style="fill:blue; stroke:pink; stroke - width:1; fill - opacity:0.1; stroke - opacity:0.9" /><rect x="190" y="35" width="33" height="22" style="fill:red; stroke:pink; stroke - width:1; fill - opacity:0.1; stroke - opacity:0.9" /><rect x="225" y="35" width="22" height="22" style="fill:blue; stroke:pink; stroke - width:1; fill - opacity:0.1; stroke - opacity:0.9" /><rect x="249" y="35" width="22" height="22" style="fill:blue; stroke:pink; stroke - width:1; fill - opacity:0.1; stroke - opacity:0.9" /><rect x="273" y="35" width="22" height="22" style="fill:blue; stroke:pink; stroke - width:1; fill - opacity:0.1; stroke - opacity:0.9" /><rect x="297" y="35" width="703" height="22" style="fill:blue; stroke:pink; stroke - width:1; fill - opacity:0.1; stroke - opacity:0.9" /><rect x="48" y="59" width="22" height="33" style="fill:red; stroke:pink; stroke - width:1; fill - opacity:0.1; stroke - opacity:0.9" /><rect x="72" y="59" width="22" height="33" style="fill:red; stroke:pink; stroke - width:1; fill - opacity:0.1; stroke - opacity:0.9" /><rect x="96" y="59" width="33" height="22" style="fill:red; stroke:pink; stroke - width:1; fill - opacity:0.1; stroke - opacity:0.9" /><rect x="96" y="83" width="33" height="9" style="fill:blue; stroke:pink; stroke - width:1; fill - opacity:0.1; stroke - opacity:0.9" /><rect x="131" y="59" width="33" height="22" style="fill:red; stroke:pink; stroke - width:1; fill - opacity:0.1; stroke - opacity:0.9" /><rect x="166" y="59" width="834" height="22" style="fill:blue; stroke:pink; stroke - width:1; fill - opacity:0.1; stroke - opacity:0.9" /><rect x="131" y="83" width="869" height="9" style="fill:blue; stroke:pink; stroke - width:1; fill - opacity:0.1; stroke - opacity:0.9" /><rect x="48" y="94" width="22" height="33" style="fill:red; stroke:pink; stroke - width:1; fill - opacity:0.1; stroke - opacity:0.9" /><rect x="72" y="94" width="33" height="22" style="fill:red; stroke:pink; stroke - width:1; fill - opacity:0.1; stroke - opacity:0.9" /><rect x="107" y="94" width="22" height="22" style="fill:blue; stroke:pink; stroke - width:1; fill - opacity:0.1; stroke - opacity:0.9" /><rect x="131" y="94" width="869" height="22" style="fill:blue; stroke:pink; stroke - width:1; fill - opacity:0.1; stroke - opacity:0.9" /><rect x="72" y="118" width="928" height="9" style="fill:blue; stroke:pink; stroke - width:1; fill - opacity:0.1; stroke - opacity:0.9" /><rect x="48" y="129" width="33" height="22" style="fill:red; stroke:pink; stroke - width:1; fill - opacity:0.1; stroke - opacity:0.9" /><rect x="83" y="129" width="33" height="22" style="fill:red; stroke:pink; stroke - width:1; fill - opacity:0.1; stroke - opacity:0.9" /><rect x="118" y="129" width="33" height="22" style="fill:red; stroke:pink; stroke - width:1; fill - opacity:0.1; stroke - opacity:0.9" /><rect x="153" y="129" width="847" height="22" style="fill:blue; stroke:pink; stroke - width:1; fill - opacity:0.1; stroke - opacity:0.9" /><rect x="48" y="153" width="33" height="22" style="fill:red; stroke:pink; stroke - width:1; fill - opacity:0.1; stroke - opacity:0.9" /><rect x="48" y="177" width="22" height="33" style="fill:red; stroke:pink; stroke - width:1; fill - opacity:0.1; stroke - opacity:0.9" /><rect x="48" y="212" width="22" height="33" style="fill:red; stroke:pink; stroke - width:1; fill - opacity:0.1; stroke - opacity:0.9" /><rect x="48" y="247" width="22" height="33" style="fill:red; stroke:pink; stroke - width:1; fill - opacity:0.1; stroke - opacity:0.9" /><rect x="48" y="282" width="22" height="22" style="fill:blue; stroke:pink; stroke - width:1; fill - opacity:0.1; stroke - opacity:0.9" /><rect x="48" y="306" width="22" height="1694" style="fill:blue; stroke:pink; stroke - width:1; fill - opacity:0.1; stroke - opacity:0.9" /><rect x="72" y="177" width="9" height="1823" style="fill:blue; stroke:pink; stroke - width:1; fill - opacity:0.1; stroke - opacity:0.9" /><rect x="83" y="153" width="33" height="22" style="fill:red; stroke:pink; stroke - width:1; fill - opacity:0.1; stroke - opacity:0.9" /><rect x="118" y="153" width="33" height="22" style="fill:red; stroke:pink; stroke - width:1; fill - opacity:0.1; stroke - opacity:0.9" /><rect x="153" y="153" width="22" height="22" style="fill:blue; stroke:pink; stroke - width:1; fill - opacity:0.1; stroke - opacity:0.9" /><rect x="177" y="153" width="823" height="22" style="fill:blue; stroke:pink; stroke - width:1; fill - opacity:0.1; stroke - opacity:0.9" /><rect x="83" y="177" width="22" height="33" style="fill:red; stroke:pink; stroke - width:1; fill - opacity:0.1; stroke - opacity:0.9" /><rect x="83" y="212" width="22" height="22" style="fill:blue; stroke:pink; stroke - width:1; fill - opacity:0.1; stroke - opacity:0.9" /><rect x="83" y="236" width="22" height="22" style="fill:blue; stroke:pink; stroke - width:1; fill - opacity:0.1; stroke - opacity:0.9" /><rect x="83" y="260" width="22" height="33" style="fill:red; stroke:pink; stroke - width:1; fill - opacity:0.1; stroke - opacity:0.9" /><rect x="83" y="295" width="22" height="22" style="fill:blue; stroke:pink; stroke - width:1; fill - opacity:0.1; stroke - opacity:0.9" /><rect x="83" y="319" width="22" height="1681" style="fill:blue; stroke:pink; stroke - width:1; fill - opacity:0.1; stroke - opacity:0.9" /><rect x="107" y="177" width="33" height="22" style="fill:red; stroke:pink; stroke - width:1; fill - opacity:0.1; stroke - opacity:0.9" /><rect x="107" y="201" width="33" height="9" style="fill:blue; stroke:pink; stroke - width:1; fill - opacity:0.1; stroke - opacity:0.9" /><rect x="107" y="212" width="22" height="33" style="fill:red; stroke:pink; stroke - width:1; fill - opacity:0.1; stroke - opacity:0.9" /><rect x="107" y="247" width="22" height="33" style="fill:red; stroke:pink; stroke - width:1; fill - opacity:0.1; stroke - opacity:0.9" /><rect x="107" y="282" width="22" height="33" style="fill:red; stroke:pink; stroke - width:1; fill - opacity:0.1; stroke - opacity:0.9" /><rect x="107" y="317" width="22" height="1683" style="fill:blue; stroke:pink; stroke - width:1; fill - opacity:0.1; stroke - opacity:0.9" /><rect x="131" y="212" width="9" height="1788" style="fill:blue; stroke:pink; stroke - width:1; fill - opacity:0.1; stroke - opacity:0.9" /><rect x="142" y="177" width="22" height="22" style="fill:blue; stroke:pink; stroke - width:1; fill - opacity:0.1; stroke - opacity:0.9" /><rect x="142" y="201" width="22" height="22" style="fill:blue; stroke:pink; stroke - width:1; fill - opacity:0.1; stroke - opacity:0.9" /><rect x="142" y="225" width="22" height="33" style="fill:red; stroke:pink; stroke - width:1; fill - opacity:0.1; stroke - opacity:0.9" /><rect x="142" y="260" width="22" height="1740" style="fill:blue; stroke:pink; stroke - width:1; fill - opacity:0.1; stroke - opacity:0.9" /><rect x="166" y="177" width="22" height="33" style="fill:red; stroke:pink; stroke - width:1; fill - opacity:0.1; stroke - opacity:0.9" /><rect x="190" y="177" width="9" height="33" style="fill:blue; stroke:pink; stroke - width:1; fill - opacity:0.1; stroke - opacity:0.9" /><rect x="166" y="212" width="22" height="33" style="fill:red; stroke:pink; stroke - width:1; fill - opacity:0.1; stroke - opacity:0.9" /><rect x="190" y="212" width="9" height="33" style="fill:blue; stroke:pink; stroke - width:1; fill - opacity:0.1; stroke - opacity:0.9" /><rect x="166" y="247" width="22" height="1753" style="fill:blue; stroke:pink; stroke - width:1; fill - opacity:0.1; stroke - opacity:0.9" /><rect x="190" y="247" width="9" height="1753" style="fill:blue; stroke:pink; stroke - width:1; fill - opacity:0.1; stroke - opacity:0.9" /><rect x="201" y="177" width="22" height="22" style="fill:blue; stroke:pink; stroke - width:1; fill - opacity:0.1; stroke - opacity:0.9" /><rect x="201" y="201" width="22" height="33" style="fill:red; stroke:pink; stroke - width:1; fill - opacity:0.1; stroke - opacity:0.9" /><rect x="201" y="236" width="22" height="1764" style="fill:blue; stroke:pink; stroke - width:1; fill - opacity:0.1; stroke - opacity:0.9" /><rect x="225" y="177" width="22" height="33" style="fill:red; stroke:pink; stroke - width:1; fill - opacity:0.1; stroke - opacity:0.9" /><rect x="249" y="177" width="9" height="33" style="fill:blue; stroke:pink; stroke - width:1; fill - opacity:0.1; stroke - opacity:0.9" /><rect x="225" y="212" width="22" height="22" style="fill:blue; stroke:pink; stroke - width:1; fill - opacity:0.1; stroke - opacity:0.9" /><rect x="225" y="236" width="22" height="1764" style="fill:blue; stroke:pink; stroke - width:1; fill - opacity:0.1; stroke - opacity:0.9" /><rect x="249" y="212" width="9" height="1788" style="fill:blue; stroke:pink; stroke - width:1; fill - opacity:0.1; stroke - opacity:0.9" /><rect x="260" y="177" width="22" height="22" style="fill:blue; stroke:pink; stroke - width:1; fill - opacity:0.1; stroke - opacity:0.9" /><rect x="260" y="201" width="22" height="1799" style="fill:blue; stroke:pink; stroke - width:1; fill - opacity:0.1; stroke - opacity:0.9" /><rect x="284" y="177" width="33" height="22" style="fill:red; stroke:pink; stroke - width:1; fill - opacity:0.1; stroke - opacity:0.9" /><rect x="284" y="201" width="33" height="22" style="fill:red; stroke:pink; stroke - width:1; fill - opacity:0.1; stroke - opacity:0.9" /><rect x="284" y="225" width="33" height="9" style="fill:blue; stroke:pink; stroke - width:1; fill - opacity:0.1; stroke - opacity:0.9" /><rect x="284" y="236" width="22" height="22" style="fill:blue; stroke:pink; stroke - width:1; fill - opacity:0.1; stroke - opacity:0.9" /><rect x="284" y="260" width="22" height="1740" style="fill:blue; stroke:pink; stroke - width:1; fill - opacity:0.1; stroke - opacity:0.9" /><rect x="308" y="236" width="9" height="1764" style="fill:blue; stroke:pink; stroke - width:1; fill - opacity:0.1; stroke - opacity:0.9" /><rect x="319" y="177" width="22" height="22" style="fill:blue; stroke:pink; stroke - width:1; fill - opacity:0.1; stroke - opacity:0.9" /><rect x="343" y="177" width="33" height="22" style="fill:red; stroke:pink; stroke - width:1; fill - opacity:0.1; stroke - opacity:0.9" /><rect x="378" y="177" width="622" height="22" style="fill:blue; stroke:pink; stroke - width:1; fill - opacity:0.1; stroke - opacity:0.9" /><rect x="319" y="201" width="22" height="22" style="fill:blue; stroke:pink; stroke - width:1; fill - opacity:0.1; stroke - opacity:0.9" /><rect x="343" y="201" width="657" height="22" style="fill:blue; stroke:pink; stroke - width:1; fill - opacity:0.1; stroke - opacity:0.9" /><rect x="319" y="225" width="681" height="9" style="fill:blue; stroke:pink; stroke - width:1; fill - opacity:0.1; stroke - opacity:0.9" /><rect x="319" y="236" width="33" height="1764" style="fill:blue; stroke:pink; stroke - width:1; fill - opacity:0.1; stroke - opacity:0.9" /><rect x="354" y="236" width="646" height="1764" style="fill:blue; stroke:pink; stroke - width:1; fill - opacity:0.1; stroke - opacity:0.9" /> <text x="0" y="15" fill="white">Waste percentage: 0%</text> </svg>